<svg xmlns="http://www.w3.org/2000/svg" xml:space="preserve" viewBox="0 0 64 64" id="logout">
  <circle cx="30" cy="21" r="11" fill="#ffe600"></circle>
  <path fill="#d4c000" d="M30 10c-.3 0-.7 0-1 .1 5.6.5 10 5.2 10 10.9s-4.4 10.4-10 10.9c.3 0 .7.1 1 .1 6.1 0 11-4.9 11-11s-4.9-11-11-11z"></path>
  <path fill="#fca90f" d="M30 33c-9.4 0-17 7.6-17 17h34c0-9.4-7.6-17-17-17z"></path>
  <path fill="#d28d0c" d="M30 33c-.3 0-.7 0-1 .1 8.9.5 16 7.9 16 16.9h2c0-9.4-7.6-17-17-17z"></path>
  <path fill="#556270" d="M53 55H37c-1.1 0-2-.9-2-2V33c0-1.1.9-2 2-2h16c1.1 0 2 .9 2 2v20c0 1.1-.9 2-2 2z"></path>
  <path fill="#fffdd1" d="M45 52h-4c-1.7 0-3-1.3-3-3V37c0-1.7 1.3-3 3-3h4c1.7 0 3 1.3 3 3v1.9c0 .6-.4 1-1 1s-1-.4-1-1V37c0-.6-.4-1-1-1h-4c-.6 0-1 .4-1 1v12c0 .6.4 1 1 1h4c.6 0 1-.4 1-1v-2c0-.6.4-1 1-1s1 .4 1 1v2c0 1.7-1.3 3-3 3z"></path>
  <path fill="#fffdd1" d="M51 44h-6c-.6 0-1-.4-1-1s.4-1 1-1h6c.6 0 1 .4 1 1s-.4 1-1 1z"></path>
  <path fill="#fffdd1" d="M50 47c-.2 0-.4-.1-.6-.2-.5-.3-.6-.9-.3-1.4l1.6-2.4-1.6-2.4c-.3-.5-.2-1.1.3-1.4.5-.3 1.1-.2 1.4.3l2 3c.2.3.2.8 0 1.1l-2 3c-.2.2-.5.4-.8.4z"></path>
</svg>
